<svg width="48" height="48" viewBox="0 0 48 48" fill="none" xmlns="http://www.w3.org/2000/svg">
<g clip-path="url(#clip0_21_174)">
<path d="M24 -0.0524902C10.7385 -0.0524902 -0.0524902 10.7385 -0.0524902 24C-0.0524902 37.2615 10.7385 48.0525 24 48.0525C37.2615 48.0525 48.0525 37.2615 48.0525 24C48.0525 10.7385 37.2615 -0.0524902 24 -0.0524902ZM24 46.4475C11.622 46.4475 1.55251 36.378 1.55251 24C1.55251 11.622 11.622 1.55251 24 1.55251C36.378 1.55251 46.4475 11.622 46.4475 24C46.4475 36.378 36.378 46.4475 24 46.4475Z" fill="white" fill-opacity="0.9"/>
<path d="M29.25 10.5H25.248C20.478 10.5 19.5 13.1055 19.5 17.0175L19.503 19.5H17.25C16.836 19.5 16.5 19.836 16.5 20.25V24.75C16.5 25.164 16.836 25.5 17.25 25.5H19.5V36.75C19.5 37.164 19.836 37.5 20.25 37.5H24.837C25.251 37.5 25.587 37.164 25.587 36.75L25.59 25.5H29.25C29.664 25.5 30 25.164 30 24.75V20.25C30 19.836 29.664 19.5 29.25 19.5H25.5885L25.593 17.406C25.593 16.3965 25.593 16.3965 26.5365 16.395L29.22 16.5C29.4105 16.506 29.622 16.4325 29.769 16.2915C29.916 16.1505 30 15.954 30 15.75V11.25C30 10.836 29.664 10.5 29.25 10.5ZM28.5 14.97L26.5665 14.895C24.285 14.895 24.0945 16.1355 24.0945 17.403L24.0885 20.247C24.0885 20.4465 24.1665 20.637 24.3075 20.778C24.447 20.9205 24.6375 21 24.837 21H28.5V24H24.84C24.426 24 24.09 24.336 24.09 24.75L24.087 36H21V24.75C21 24.336 20.664 24 20.25 24H18V21H20.2545C20.454 21 20.6445 20.9205 20.7855 20.7795C20.9265 20.6385 21.0045 20.448 21.0045 20.2485L21 17.016C21 13.6185 21.636 12 25.248 12H28.5V14.97Z" fill="white" fill-opacity="0.9"/>
</g>
<defs>
<clipPath id="clip0_21_174">
<rect width="48" height="48" fill="white"/>
</clipPath>
</defs>
</svg>


