<svg width="48" height="48" viewBox="0 0 48 48" fill="none" xmlns="http://www.w3.org/2000/svg">
<g clip-path="url(#clip0_21_163)">
<g opacity="0.9">
<path d="M24 0C10.7438 0 0 10.7438 0 24C0 37.2562 10.7438 48 24 48C37.2562 48 48 37.2562 48 24C48 10.7438 37.2562 0 24 0ZM38.9812 38.9719C37.0312 40.9219 34.7719 42.45 32.25 43.5094C29.6438 44.6156 26.8688 45.1687 24 45.1687C21.1406 45.1687 18.3656 44.6062 15.75 43.5094C13.2281 42.4406 10.9594 40.9125 9.01875 38.9719C7.06875 37.0219 5.54063 34.7625 4.48125 32.2406C3.375 29.6344 2.8125 26.8594 2.8125 24C2.8125 21.1406 3.375 18.3656 4.47187 15.75C5.54062 13.2281 7.06875 10.9594 9.00937 9.01875C10.9687 7.06875 13.2281 5.54062 15.75 4.47187C18.3656 3.375 21.1406 2.8125 24 2.8125C26.8594 2.8125 29.6344 3.375 32.25 4.47187C34.7719 5.54062 37.0406 7.06875 38.9812 9.00938C40.9312 10.9594 42.4594 13.2187 43.5188 15.7406C44.625 18.3469 45.1781 21.1219 45.1781 23.9906C45.1781 26.85 44.6156 29.625 43.5188 32.2406C42.45 34.7625 40.9219 37.0313 38.9812 38.9719Z" fill="white" fill-opacity="0.9"/>
<path d="M17.2875 19.0688H12.6094V34.0407H17.2875V19.0688Z" fill="white" fill-opacity="0.9"/>
<path d="M14.85 12C13.125 12 11.9906 13.1156 11.9906 14.5969C11.9906 16.05 13.0875 17.1937 14.7844 17.1937H14.8219C16.5844 17.1937 17.6812 16.0406 17.6719 14.5969C17.6344 13.1156 16.575 12 14.85 12Z" fill="white" fill-opacity="0.9"/>
<path d="M30.0656 18.9282C27.3844 18.9282 25.7063 20.3907 25.3969 21.422V19.0688H20.1375C20.2031 20.3157 20.1375 34.0407 20.1375 34.0407H25.3969V25.9501C25.3969 25.4907 25.3781 25.0407 25.5094 24.722C25.8656 23.822 26.6438 22.8845 28.0406 22.8845C29.8688 22.8845 30.6938 24.272 30.6938 26.297V34.0407H36V25.7157C36 21.0845 33.3938 18.9282 30.0656 18.9282Z" fill="white" fill-opacity="0.9"/>
</g>
</g>
<defs>
<clipPath id="clip0_21_163">
<rect width="48" height="48" fill="white"/>
</clipPath>
</defs>
</svg>
