<svg width="77" height="78" viewBox="0 0 77 78" fill="none" xmlns="http://www.w3.org/2000/svg">
<path d="M32.7663 46.3237C32.7003 46.8894 32.7484 47.4993 32.5445 48.0099C32.1046 49.1127 31.7375 50.3471 30.9697 51.1916C29.8422 52.4318 29.0483 53.814 28.3092 55.2722C28.1835 55.5209 27.9188 55.7483 27.663 55.8742C25.6585 56.8633 25.0485 58.8856 24.039 60.6284C23.6646 61.2753 23.1359 61.9253 22.5148 62.3178C21.1406 63.1845 19.6217 62.3934 19.736 60.7876C19.8339 59.4174 20.2463 58.0125 20.8005 56.7467C21.6479 54.8113 22.394 52.9251 21.9802 50.7488C21.8964 50.3089 22.1694 49.8118 22.212 49.3351C22.2787 48.5862 22.2409 47.8258 22.3379 47.0827C22.4552 46.1774 22.5125 45.2174 22.8672 44.399C23.6791 42.5248 24.6567 40.7226 25.5669 38.8909C25.7562 38.51 25.9451 38.1298 26.2692 37.4777C25.592 37.6505 25.2138 37.7509 24.8347 37.8446C22.859 38.3305 21.4961 37.1232 21.8873 35.1105C22.0257 34.3993 21.8177 33.8831 21.6676 33.2484C21.4871 32.4866 21.4846 31.4586 21.8724 30.8392C22.4237 29.9598 23.5447 29.8012 24.5958 29.9988C25.8891 30.2421 27.1717 30.5487 28.4675 30.7766C28.6893 30.8153 29.082 30.663 29.1808 30.4829C29.7793 29.3852 30.3148 28.2532 30.9306 27.0138C30.1552 26.8701 29.5405 26.7814 28.9381 26.6387C27.7428 26.3549 26.568 26.0802 25.7595 24.97C25.5025 24.6172 24.8591 24.5485 24.3975 24.3399C23.8322 24.0849 22.9899 23.9692 22.7593 23.5341C21.8377 21.7921 20.1302 21.4788 18.541 20.9422C16.9973 20.4209 16.2704 18.7093 17.295 17.6408C17.7042 17.2146 18.4538 16.944 19.0619 16.9184C19.8963 16.8829 20.7482 17.1258 21.5857 17.2868C23.289 17.6125 24.9754 18.1103 26.6923 18.2603C28.2045 18.3915 29.7486 18.105 31.2798 18.0828C32.16 18.0701 33.0592 18.1383 33.9213 18.3147C34.778 18.4894 35.2479 18.1898 35.6573 17.2761C34.8 17.1883 34.0477 17.1193 33.2974 17.0317C32.3556 16.9216 31.3575 17.0313 30.6781 16.0735C30.5402 15.8784 29.9243 15.9385 29.5513 16.0073C27.8746 16.316 26.2106 16.6974 24.533 16.9995C23.4387 17.1963 22.7403 16.7051 22.4407 15.6456C22.1159 14.4968 22.3611 13.7567 23.4615 13.4115C27.2109 12.2357 30.8721 10.6624 34.9123 10.6828C35.1674 10.684 35.4518 10.6511 35.6732 10.5381C37.3029 9.70918 38.975 9.91156 40.6862 10.2132C41.2606 10.314 41.8863 10.0794 42.4919 10.0526C43.4448 10.0106 44.5164 9.72369 45.3336 10.051C48.3626 11.2637 51.3315 12.6373 54.2684 14.0625C55.0379 14.4356 55.6029 15.2225 56.2741 15.806C56.9315 16.3774 57.6723 16.869 58.2493 17.5104C58.7027 18.0137 58.9624 18.6914 59.3083 19.2917C58.1563 18.2224 56.9753 17.1823 55.8586 16.0776C54.3758 14.6096 52.714 13.6044 51.8251 13.7517C52.7932 14.4486 53.8069 15.0643 54.6801 15.8395C55.5649 16.6246 56.1715 17.7982 57.1505 18.3833C58.4414 19.1544 58.8351 20.2607 59.1691 21.5312C59.2326 21.7713 59.4584 22.1158 59.6553 22.1504C60.7841 22.3462 61.9325 22.4294 63.0626 22.6228C63.6116 22.7162 64.199 22.8681 64.6522 23.169C65.2633 23.5743 65.7988 24.1152 66.2977 24.6608C66.8391 25.2524 67.6094 25.8644 67.7294 26.5619C67.9286 27.7251 68.5067 28.4542 69.3558 29.1292C69.7245 29.4224 69.9987 29.8345 70.511 30.4137C66.8867 30.7545 63.6184 31.0793 60.3474 31.3592C59.3901 31.4415 58.2723 31.7127 57.487 31.3443C55.6542 30.4844 54.2975 30.9687 52.9945 32.24C52.8092 32.4207 52.5937 32.5719 52.3896 32.7319C50.6696 34.0791 49.0084 35.4919 46.8495 36.1688C45.4747 36.5996 44.0689 37.0824 42.8499 37.825C40.916 39.0048 38.9065 39.4645 36.6787 39.2806C36.3354 39.2521 35.882 39.5454 35.6125 39.8201C34.8666 40.581 34.0782 41.3395 33.5174 42.2318C32.8473 43.298 32.1417 44.4565 31.9334 45.6599C31.7831 46.5269 31.7158 47.3565 31.3158 48.1741C30.6793 49.4717 30.146 50.7978 28.9794 51.7697C28.5856 52.0978 28.4316 52.7152 28.1736 53.2031C27.9664 53.5928 27.8139 54.0231 27.5533 54.3718C27.1387 54.926 26.6686 55.1965 26.2137 54.2029C26.2581 54.7031 26.3233 55.168 26.5716 55.308C26.8054 55.4398 27.268 55.2994 27.5645 55.1501C27.8474 55.0075 28.1556 54.7385 28.2616 54.4541C28.7896 53.0403 29.5933 51.8704 30.5825 50.6973C31.6041 49.4822 32.0629 47.7997 32.7663 46.3237ZM30.9486 14.5567C30.6444 14.5123 30.3257 14.3882 30.0389 14.4386C28.5109 14.7092 26.9923 15.0364 25.4644 15.3112C25.2303 15.3536 24.9645 15.2236 24.5241 15.1354C24.8185 14.8399 24.9198 14.6486 25.0636 14.608C28.0316 13.7813 30.9946 12.9356 33.982 12.1828C34.7933 11.9782 35.7728 12.2824 36.5097 11.9682C38.0967 11.2902 39.6233 11.524 41.1951 11.8238C41.742 11.9275 42.2932 12.0292 42.8466 12.074C43.1245 12.0959 43.6427 12.0277 43.6602 11.9296C43.8429 10.9158 44.5795 11.37 45.0564 11.4348C45.7098 11.523 46.3446 11.7783 46.9747 11.9991C48.2783 12.456 49.5723 12.9383 50.8705 13.4102C50.9088 13.2996 50.9472 13.189 50.9855 13.0784C48.8226 11.9942 46.6485 10.9367 44.1586 10.7615C43.9148 10.7441 43.5488 10.7904 43.4316 10.9489C42.9503 11.5976 42.3296 11.4686 41.7202 11.3255C39.848 10.8857 37.9923 10.6409 36.1773 11.5478C36.0502 11.6112 35.8871 11.6028 35.7394 11.6238C34.0205 11.8711 32.2754 12.0059 30.5902 12.3944C28.6759 12.8361 26.7988 13.4602 24.9431 14.1125C24.5791 14.2407 24.3884 14.8585 24.1176 15.2508C24.5306 15.4674 24.993 15.9296 25.3493 15.8587C27.2271 15.486 29.0784 14.9788 30.9398 14.5201C31.2826 14.6542 31.8243 14.6973 31.9345 14.9377C32.4678 16.0957 33.5021 15.8816 34.4276 15.9784C35.0568 16.0443 35.6965 16.0282 36.3188 16.131C37.3881 16.3066 37.784 17.0655 37.3272 17.9639C36.7051 19.1887 36.0112 19.4683 34.6539 19.3581C32.8879 19.2149 31.1104 19.2121 29.3376 19.162C29.259 19.1592 29.177 19.2865 28.7737 19.6213C30.0497 19.772 31.1343 20.1865 31.9732 19.895C32.4906 19.7154 32.9041 19.5859 33.4177 19.671C34.1511 19.7928 34.8804 19.9561 35.6182 20.0292C35.9104 20.0582 36.4388 19.9608 36.4886 19.8041C36.7839 18.8732 38.2999 18.775 38.0346 17.5022C38.369 17.4879 38.7133 17.4246 39.0346 17.4826C39.1653 17.5061 39.2474 17.7947 39.3448 17.9521C40.0288 17.7423 40.6248 17.5592 41.2116 17.3799C39.8466 16.8168 38.5515 16.1255 37.1696 15.7572C35.7585 15.3807 34.2637 15.3213 32.529 15.0858C33.108 14.6547 33.4001 14.4369 33.6919 14.2199C33.6575 14.1281 33.6222 14.0359 33.5878 13.9442C32.707 14.1485 31.8274 14.3524 30.9486 14.5567ZM26.6887 20.7706C26.5897 20.907 26.4907 21.0435 26.3909 21.1796C26.601 21.451 26.7705 21.7727 27.0308 21.9809C27.404 22.2794 27.9191 22.4223 28.2417 22.7579C29.5498 24.1132 31.1619 24.3863 32.9222 24.1897C34.1697 24.0504 35.0081 24.8684 34.581 25.9724C33.7695 28.0718 32.8542 30.1312 31.951 32.1934C31.8073 32.5223 31.5635 32.9084 31.2632 33.0485C30.1126 33.5824 29.949 34.5933 29.8771 35.658C29.7448 37.6076 29.1902 39.3846 28.1306 41.0589C27.3624 42.2745 26.8368 43.6479 26.2549 44.9737C26.1231 45.2743 26.1864 45.6698 26.1929 46.0205C26.2031 46.5919 26.3251 47.1743 26.2491 47.7308C26.0117 49.457 25.7031 51.1737 25.4179 52.9228C26.2145 52.8923 26.6824 52.8749 27.1504 52.8574C27.0861 52.7902 27.0218 52.723 26.9575 52.6558C27.6301 51.8502 28.3882 51.1005 28.9545 50.2264C29.8031 48.916 30.7871 47.6656 30.8111 45.9465C30.8357 44.1592 31.3398 42.5614 32.8556 41.3429C33.6311 40.7191 34.123 39.7479 34.7678 38.9544C35.0102 38.6568 35.3302 38.1821 35.6023 38.1908C36.9324 38.2346 38.2218 38.3039 39.487 37.6962C40.2172 37.3455 41.0731 37.2646 41.8552 37.0102C42.7366 36.7232 43.6134 36.4121 44.4654 36.0504C46.0341 35.3861 47.6997 34.8551 49.1129 33.9414C50.976 32.7368 52.6193 31.1948 54.398 29.8528C54.6988 29.6258 55.2958 29.4868 55.6107 29.6288C57.7204 30.5817 59.9016 30.3744 62.0917 30.1807C63.7036 30.0378 65.3148 29.8925 66.9537 29.7455C66.8889 29.3616 66.8202 29.0775 66.7963 28.7888C66.7362 28.0608 66.9608 27.1342 66.594 26.6408C65.7646 25.5223 64.6502 24.6138 63.6428 23.6299C63.5764 23.5647 63.4375 23.56 63.3301 23.5523C61.9728 23.4587 60.6099 23.4141 59.2615 23.2502C58.9086 23.2076 58.3537 22.8354 58.312 22.5533C58.0795 20.9784 57.1727 19.976 56.1496 18.7748C54.0693 16.3325 51.4781 14.908 48.672 13.6961C47.6248 13.2442 46.3861 12.5146 45.4254 12.7352C43.3207 13.2171 41.3722 12.8204 39.3606 12.5084C38.9024 12.4373 38.4038 12.5018 37.9424 12.594C36.7978 12.8229 35.6631 13.1033 34.6704 13.3298C34.6626 14.7883 35.9011 14.4268 36.8767 14.5755C37.1963 14.6244 37.4911 14.8279 37.803 14.9445C38.7635 15.3036 39.7145 15.6942 40.6922 15.9954C41.5791 16.2682 42.5147 16.3887 43.393 16.6851C43.6974 16.7876 44.124 17.2527 44.0853 17.4813C44.0244 17.8359 43.6681 18.2957 43.334 18.4076C42.8698 18.5639 42.2997 18.3708 41.7941 18.4494C40.0973 18.7129 38.2952 18.7384 37.2392 20.4996C37.0534 20.8087 36.5073 21.0964 36.1474 21.0742C34.6978 20.9844 33.3088 20.7495 31.7954 20.9932C30.148 21.2595 28.3959 20.8732 26.6887 20.7706ZM28.753 34.1856C28.7885 34.0996 28.8248 34.0139 28.8603 33.9278C28.1034 33.4791 27.3357 33.0479 26.5971 32.5708C26.4199 32.4569 26.3379 32.1952 26.2125 32.0022C26.4377 31.9233 26.6863 31.7409 26.8816 31.7871C27.3092 31.8885 27.7067 32.1152 28.1224 32.274C29.9359 32.9656 30.5513 32.7414 31.4356 31.0349C31.9661 30.0114 32.5178 28.9932 32.9595 27.9307C33.2898 27.1364 33.4588 26.2756 33.7555 25.252C31.1938 25.3886 28.9774 25.035 27.0402 23.6306C28.4041 25.7811 30.7632 25.5252 32.9151 26.0064C32.8892 26.3867 32.965 26.7925 32.8237 27.0999C32.1309 28.6153 31.4265 30.1291 30.6137 31.5807C30.4528 31.869 29.7703 32.0588 29.3803 31.9926C27.7878 31.7198 26.2223 31.2925 24.6319 31.0114C24.2631 30.9464 23.6517 31.1124 23.4783 31.382C23.2593 31.7223 23.216 32.3573 23.3977 32.7131C23.5262 32.9647 24.1486 33.0002 24.5602 33.0543C24.7562 33.0802 25.0133 32.8138 25.1795 32.8683C25.8199 33.0808 26.4564 33.3328 27.0399 33.6663C27.1386 33.7226 26.9685 34.2511 26.9156 34.6085C26.3336 34.3619 25.9003 34.0044 25.5319 34.062C24.971 34.1494 24.3062 34.402 23.966 34.8148C23.6933 35.146 23.6137 36.0233 23.8559 36.291C24.169 36.6374 24.9375 36.8243 25.4185 36.7075C26.0985 36.5414 26.6947 36.0338 27.4982 35.5753C27.5938 35.7027 28.0296 36.0219 28.0072 36.3033C27.9365 37.2089 27.8497 38.1677 27.4924 38.9848C26.5843 41.0612 25.4891 43.054 24.551 45.1175C24.2907 45.6893 24.2709 46.3879 24.2272 47.0341C24.1903 47.581 24.3614 48.1463 24.2945 48.6845C24.1903 49.5237 23.7192 50.3838 23.8369 51.1715C24.103 52.9467 23.7196 54.5338 23.0737 56.1431C22.4959 57.5819 22.0185 59.0633 21.5585 60.5451C21.4807 60.7958 21.6493 61.3473 21.8171 61.4006C22.1153 61.4949 22.5618 61.4056 22.8328 61.2239C23.1566 61.0073 23.4117 60.6424 23.6094 60.2926C24.1575 59.3234 24.6673 58.3332 25.1771 57.3429C25.3089 57.0858 25.3867 56.8019 25.4885 56.53C25.4073 56.4969 25.3257 56.4625 25.2444 56.4294C24.3424 57.9373 23.4399 59.446 22.5387 60.9543C22.3771 60.8885 22.2155 60.8228 22.0538 60.757C22.2238 60.0428 22.3488 59.3145 22.5716 58.6173C23.2022 56.6436 23.9681 54.7071 24.4904 52.7066C24.7896 51.5609 24.6845 50.3149 24.8254 49.1216C24.8903 48.575 25.1311 48.0527 25.2484 47.5094C25.2971 47.2837 25.2899 46.8465 25.2112 46.823C24.4354 46.5858 24.7217 46.0705 24.9113 45.6596C25.9681 43.3677 27.1128 41.1143 28.1033 38.7947C28.4824 37.9065 28.6597 36.8806 28.6728 35.9132C28.6782 35.5176 28.0013 35.1149 27.6443 34.7062C27.6092 34.6659 27.6418 34.5649 27.645 34.3912C28.0009 34.3253 28.3771 34.2561 28.753 34.1856ZM28.0119 19.8412C28.0136 19.729 28.0154 19.6168 28.0162 19.5042C26.3062 19.1564 24.5962 18.8087 22.8865 18.4601C21.9062 18.2603 20.9314 17.9698 19.942 17.9013C19.5067 17.8717 19.0405 18.2956 18.5886 18.5128C18.9236 18.9407 19.1722 19.5424 19.611 19.7614C20.6668 20.2882 21.8181 20.6186 22.9161 21.0667C23.2048 21.1843 23.6069 21.3996 23.6663 21.6418C24.0237 23.0827 25.0854 23.2358 26.3672 23.2515C25.9489 22.4203 23.834 23.0755 24.6969 21.4185C22.8827 20.517 21.0827 19.6226 19.2819 18.7277C19.3136 18.6242 19.3449 18.5194 19.3766 18.4159C19.7212 18.4481 20.0731 18.4467 20.4103 18.5168C22.5154 18.9561 24.6135 19.4262 26.7211 19.848C27.1344 19.93 27.5805 19.8478 28.0119 19.8412Z" fill="#1B1B1B"/>
<path d="M32.7664 46.3237C32.0622 47.7992 31.6042 49.4821 30.5843 50.6919C29.595 51.865 28.7913 53.0349 28.2634 54.4487C28.1574 54.7331 27.8491 55.002 27.5663 55.1446C27.2697 55.2939 26.8072 55.4343 26.5734 55.3026C26.3242 55.1622 26.259 54.6973 26.2154 54.1975C26.67 55.1919 27.1396 54.9202 27.5551 54.3664C27.8165 54.0181 27.969 53.5878 28.1753 53.1976C28.4342 52.7102 28.5874 52.0924 28.9811 51.7643C30.1478 50.7924 30.6814 49.4655 31.3175 48.1687C31.718 47.3523 31.7856 46.5219 31.9351 45.6544C32.143 44.4519 32.849 43.2926 33.5191 42.2264C34.0799 41.3341 34.8683 40.5756 35.6143 39.8147C35.8838 39.54 36.3371 39.2466 36.6804 39.2751C38.9083 39.4591 40.9177 38.9994 42.8517 37.8196C44.0699 37.0766 45.4756 36.5938 46.8512 36.1634C49.0098 35.4873 50.6713 34.0737 52.3913 32.7264C52.5959 32.5657 52.8109 32.4153 52.9963 32.2346C54.2989 30.9621 55.6551 30.4785 57.4887 31.3388C58.2732 31.7069 59.391 31.4357 60.3492 31.3538C63.6209 31.0743 66.8892 30.7495 70.5128 30.4083C70.0005 29.8291 69.7271 29.4173 69.3576 29.1238C68.5084 28.4488 67.9304 27.7197 67.7311 26.5565C67.612 25.8594 66.8417 25.2474 66.2994 24.6554C65.8005 24.1098 65.2651 23.5689 64.6539 23.1635C64.2008 22.8626 63.6133 22.7107 63.0643 22.6173C61.9343 22.424 60.7858 22.3408 59.657 22.145C59.461 22.1108 59.234 21.7667 59.1708 21.5258C58.8369 20.2553 58.4431 19.1489 57.1523 18.3779C56.1732 17.7928 55.5667 16.6191 54.6818 15.834C53.8087 15.0589 52.795 14.4432 51.8268 13.7463C52.7158 13.5989 54.3771 14.605 55.8603 16.0722C56.9771 17.1768 58.1581 18.217 59.3101 19.2862C59.4432 19.6812 59.5768 20.0774 59.7099 20.4723C59.933 20.912 60.0756 21.6456 60.3962 21.7344C61.2626 21.9751 62.2143 22.0508 63.116 21.9844C63.9365 21.9244 64.5374 22.112 65.1083 22.684C66.2786 23.8567 67.4902 24.9878 68.7458 26.1936C69.6181 25.26 70.6338 25.3447 71.6883 25.8241C71.7303 25.9695 71.7728 26.114 71.8149 26.2594C71.6727 27.7061 70.6808 28.2048 69.0702 28.2342C69.5602 28.6136 69.7487 28.7695 69.948 28.9121C70.1786 29.0775 70.4175 29.2304 70.6413 29.38C71.7451 28.2566 72.2523 28.2669 73.2929 29.3804L73.2848 29.3256C72.9563 29.7483 72.7088 30.3866 72.2812 30.5465C71.4631 30.8525 70.5465 30.9302 69.6628 31.0231C67.9137 31.2077 66.1608 31.3791 64.4052 31.4827C61.5332 31.6518 58.6498 32.3981 55.7864 31.331C55.5078 31.2267 55.036 31.3481 54.777 31.5347C53.2393 32.6406 51.7446 33.8063 50.2202 34.9313C49.7786 35.2574 49.3141 35.5795 48.8123 35.7927C46.9013 36.6063 44.9463 37.3223 43.0537 38.1741C41.0515 39.0752 39.1209 40.1415 36.7911 39.8073C36.536 39.7707 36.1736 40.0169 35.9609 40.2317C35.105 41.0946 34.3051 42.0123 33.4521 42.8777C32.748 43.5919 32.3747 45.0919 32.762 45.8745C32.7637 46.0257 32.7646 46.1745 32.7664 46.3237ZM70.7627 25.696C70.0185 26.1125 69.5282 26.2754 69.231 26.61C69.1124 26.744 69.4049 27.5376 69.5356 27.5444C69.9662 27.5665 70.5134 27.4816 70.8066 27.2114C70.9916 27.0399 70.8034 26.4651 70.7627 25.696Z" fill="white"/>
<path d="M32.7624 45.8757C32.3751 45.0931 32.7488 43.5923 33.4525 42.8789C34.3055 42.0135 35.1054 41.0958 35.9613 40.233C36.1736 40.019 36.5364 39.7719 36.7915 39.8085C39.1213 40.1427 41.0519 39.0764 43.0541 38.1754C44.9471 37.3227 46.9017 36.6075 48.8127 35.7939C49.3137 35.5803 49.779 35.2587 50.2206 34.9325C51.745 33.8075 53.2397 32.6418 54.7774 31.5359C55.0364 31.3493 55.5086 31.2292 55.7868 31.3322C58.6502 32.3993 61.5328 31.6526 64.4055 31.4839C66.1612 31.3803 67.914 31.209 69.6631 31.0243C70.5468 30.9314 71.4626 30.8533 72.2816 30.5477C72.7091 30.3879 72.9567 29.7496 73.2852 29.3268C73.5005 30.4285 73.0115 31.3979 71.9555 31.5992C70.5848 31.8609 69.1832 31.9589 67.7951 32.1259C66.4083 32.2924 65.0236 32.4901 63.6333 32.6134C61.6354 32.7906 59.6332 32.9262 57.6314 33.0506C57.1939 33.0779 56.6952 33.1008 56.3173 32.9245C54.9633 32.2931 53.8909 32.7176 52.9193 33.6713C50.762 35.7897 48.1515 37.2939 45.3564 38.2117C42.4337 39.1708 39.8753 41.3668 36.5303 40.9845C36.3967 40.9689 36.1789 41.0204 36.1217 41.1145C35.1091 42.778 32.8165 43.542 32.7624 45.8757Z" fill="#1B1B1B"/>
<path d="M71.6886 25.8254C70.6333 25.3456 69.6184 25.2613 68.7462 26.1949C67.4914 24.9895 66.2801 23.8576 65.1087 22.6853C64.5377 22.1133 63.9369 21.9257 63.1163 21.9857C62.2138 22.0517 61.263 21.9764 60.3965 21.7357C60.0759 21.6469 59.9334 20.9133 59.7102 20.4736C60.6573 20.6673 61.6136 21.0512 62.547 21.0027C63.5294 20.9515 64.2838 21.1418 64.9627 21.8038C65.8349 22.6541 66.681 23.5361 67.6099 24.3203C67.8948 24.5604 68.4526 24.6779 68.8184 24.5858C70.336 24.2021 71.0511 24.4714 71.6886 25.8254Z" fill="#1B1B1B"/>
<path d="M73.2933 29.3817C72.2518 28.2678 71.7455 28.2579 70.6417 29.3813C70.4182 29.2309 70.1794 29.0779 69.9484 28.9134C69.7499 28.7712 69.5605 28.6149 69.0705 28.2355C70.6812 28.2061 71.673 27.7074 71.8152 26.2606C71.8952 26.932 71.8868 27.5678 72.6914 27.9666C73.0405 28.1401 73.102 28.8925 73.2933 29.3817Z" fill="#1B1B1B"/>
<path d="M26.6887 20.7706C28.395 20.8728 30.1484 21.2587 31.7954 20.9932C33.3088 20.7496 34.6978 20.9844 36.1474 21.0742C36.5073 21.0964 37.053 20.8096 37.2392 20.4997C38.2952 18.7384 40.0972 18.7129 41.7941 18.4494C42.2997 18.3708 42.8698 18.5639 43.334 18.4077C43.6673 18.2953 44.0236 17.8355 44.0852 17.4814C44.1249 17.2532 43.6974 16.7877 43.393 16.6851C42.5151 16.39 41.5795 16.2694 40.6922 15.9954C39.7144 15.6942 38.7626 15.3032 37.803 14.9446C37.4911 14.8279 37.1963 14.6244 36.8766 14.5755C35.9011 14.4268 34.6625 14.7884 34.6704 13.3298C35.6639 13.1037 36.7978 12.8229 37.9423 12.594C38.4038 12.5018 38.902 12.4382 39.3606 12.5085C41.3722 12.8204 43.3215 13.2176 45.4254 12.7352C46.3869 12.515 47.6256 13.2446 48.672 13.6961C51.4781 14.908 54.0697 16.3317 56.1496 18.7748C57.1727 19.976 58.0794 20.9784 58.312 22.5533C58.3537 22.8354 58.9086 23.2076 59.2615 23.2502C60.6103 23.4132 61.9728 23.4587 63.3301 23.5523C63.4375 23.56 63.5764 23.5648 63.6428 23.6299C64.6497 24.6146 65.7646 25.5223 66.5939 26.6408C66.9603 27.135 66.7353 28.0604 66.7963 28.7888C66.8205 29.0767 66.8888 29.3616 66.9537 29.7455C65.3147 29.8925 63.7032 30.0387 62.0917 30.1807C59.9016 30.3744 57.7204 30.5818 55.6107 29.6288C55.2957 29.4869 54.6988 29.6259 54.3979 29.8528C52.6184 31.1944 50.976 32.7368 49.1128 33.9414C47.6997 34.8551 46.0345 35.3853 44.4654 36.0504C43.6125 36.4117 42.7366 36.7232 41.8552 37.0102C41.0731 37.2647 40.2172 37.3455 39.487 37.6963C38.2218 38.3039 36.932 38.2355 35.6023 38.1908C35.3302 38.1822 35.0093 38.6564 34.7677 38.9544C34.123 39.7479 33.6311 40.7191 32.8555 41.3429C31.3406 42.5618 30.8357 44.1592 30.8111 45.9465C30.7879 47.666 29.8039 48.9164 28.9544 50.2264C28.3881 51.1005 27.6301 51.8502 26.9575 52.6558C27.0218 52.723 27.0861 52.7902 27.1503 52.8575C26.6824 52.8749 26.2153 52.8927 25.4179 52.9228C25.7035 51.1729 26.0125 49.4574 26.2491 47.7308C26.3251 47.1743 26.203 46.5919 26.1929 46.0206C26.1868 45.669 26.1231 45.2744 26.2548 44.9737C26.8367 43.6479 27.3623 42.2745 28.1305 41.059C29.1893 39.3842 29.7448 37.6076 29.8771 35.6581C29.949 34.5933 30.1126 33.5824 31.2632 33.0485C31.5631 32.9092 31.8073 32.5224 31.951 32.1934C32.8542 30.1312 33.7695 28.0718 34.581 25.9724C35.008 24.8684 34.1689 24.05 32.9221 24.1897C31.1618 24.3864 29.5498 24.1132 28.2417 22.7579C27.9178 22.4227 27.404 22.2794 27.0307 21.9809C26.7705 21.7727 26.601 21.451 26.3909 21.1796C26.4907 21.0435 26.5897 20.9071 26.6887 20.7706ZM47.2971 27.2007C46.1813 27.058 45.1593 26.9443 44.1429 26.7939C41.1276 26.3462 41.1292 26.3408 40.118 29.2248C40.0318 29.4693 39.9049 29.7018 39.8345 29.95C39.5704 30.8829 40.0281 31.4277 40.9906 31.2494C41.9011 31.0816 42.7857 30.7714 43.6962 30.6015C45.0753 30.344 46.1315 29.5692 47.1074 28.6363C47.5943 28.1688 47.8232 27.6872 47.2971 27.2007ZM49.1025 17.4594C49.0187 17.5194 48.934 17.5789 48.8506 17.6381C48.6461 17.5499 48.4452 17.4543 48.2378 17.3761C46.6793 16.7925 46.161 17.0618 45.7834 18.6789C45.632 19.3266 45.4269 19.986 45.4349 20.6371C45.4398 21.014 45.7839 21.6787 46.0398 21.7115C47.6096 21.9128 49.1991 22.0306 50.7799 22.0174C51.0565 22.0149 51.6529 21.0594 51.545 20.8833C50.8136 19.6912 49.934 18.5903 49.1025 17.4594Z" fill="white"/>
<path d="M28.753 34.1856C28.3776 34.2552 28.0009 34.3253 27.6438 34.3916C27.6406 34.5653 27.6072 34.6659 27.6431 34.7065C27.9993 35.1148 28.6761 35.5175 28.6716 35.9136C28.6589 36.8801 28.482 37.9072 28.1021 38.7951C27.1116 41.1147 25.9669 43.3681 24.9101 45.6599C24.7205 46.0708 24.4342 46.5862 25.21 46.8234C25.2883 46.8477 25.2959 47.284 25.2471 47.5098C25.1299 48.0531 24.8886 48.5762 24.8242 49.122C24.6833 50.3152 24.788 51.5621 24.4892 52.707C23.9677 54.7079 23.2009 56.644 22.5704 58.6177C22.3475 59.3149 22.2226 60.0431 22.0526 60.7573C22.2143 60.8231 22.3759 60.8889 22.5375 60.9547C23.4396 59.4468 24.342 57.9381 25.2432 56.4298C25.3245 56.4629 25.4061 56.4972 25.4873 56.5303C25.3846 56.8019 25.3073 57.087 25.1759 57.3432C24.6661 58.3335 24.1563 59.3238 23.6082 60.293C23.4105 60.6428 23.1554 61.0077 22.8316 61.2243C22.5597 61.4055 22.1141 61.4952 21.8159 61.401C21.6473 61.3473 21.4795 60.7961 21.5573 60.5454C22.0173 59.0637 22.4947 57.5823 23.0725 56.1435C23.7184 54.5342 24.1022 52.9462 23.8357 51.1719C23.7176 50.385 24.1895 49.5253 24.2933 48.6849C24.3606 48.1458 24.1895 47.5806 24.226 47.0345C24.2697 46.3882 24.2895 45.6897 24.5498 45.1179C25.4879 43.0543 26.5835 41.0607 27.4912 38.9852C27.8485 38.168 27.9352 37.2092 28.006 36.3037C28.028 36.0211 27.5926 35.7031 27.497 35.5757C26.6943 36.0346 26.0973 36.5417 25.4173 36.7079C24.9359 36.8255 24.1678 36.6378 23.8547 36.2913C23.6125 36.0237 23.6925 35.1455 23.9648 34.8151C24.3041 34.4019 24.9689 34.1494 25.5307 34.0624C25.8991 34.0048 26.3324 34.3622 26.9144 34.6089C26.9673 34.2514 27.1383 33.7234 27.0387 33.6667C26.4552 33.3332 25.8187 33.0812 25.1783 32.8687C25.0117 32.8129 24.7554 33.0797 24.559 33.0547C24.1474 33.0006 23.525 32.9651 23.3964 32.7135C23.2143 32.3585 23.2581 31.7227 23.477 31.3824C23.6505 31.1128 24.2623 30.9459 24.6307 31.0118C26.2219 31.2932 27.7875 31.7206 29.3791 31.993C29.77 32.0596 30.4512 31.8702 30.6125 31.5811C31.4253 30.1294 32.1297 28.6157 32.8225 27.1002C32.963 26.7925 32.888 26.387 32.9139 26.0068C30.762 25.5256 28.4033 25.7806 27.039 23.6309C28.9766 25.0346 31.1926 25.3889 33.7543 25.2524C33.4576 26.2759 33.2885 27.1368 32.9583 27.9311C32.5166 28.9935 31.9657 30.0122 31.4344 31.0353C30.5492 32.7414 29.9339 32.9656 28.1212 32.2744C27.7055 32.1155 27.3079 31.8889 26.8804 31.7874C26.6851 31.7412 26.4365 31.9237 26.2113 32.0026C26.3367 32.1956 26.4187 32.4573 26.5959 32.5712C27.3349 33.0474 28.1022 33.4795 28.8591 33.9282C28.8248 34.0139 28.7893 34.0999 28.753 34.1856ZM26.5511 36.0195C26.1427 35.3985 25.9909 34.8968 25.7061 34.805C25.3542 34.6914 24.7622 34.7913 24.5188 35.0386C24.3276 35.2329 24.5099 35.7924 24.5254 36.19C25.0743 36.1434 25.6241 36.0971 26.5511 36.0195Z" fill="white"/>
<path d="M30.9365 14.5185C29.0763 14.9788 27.2243 15.4856 25.3464 15.8583C24.9901 15.9292 24.5281 15.4662 24.1147 15.2504C24.3856 14.8581 24.5762 14.2403 24.9402 14.1121C26.796 13.4598 28.673 12.8357 30.5873 12.394C32.2734 12.0059 34.0185 11.8711 35.7366 11.6234C35.8834 11.6019 36.0473 11.6108 36.1744 11.5474C37.9902 10.6409 39.8447 10.8862 41.7173 11.3251C42.3268 11.4682 42.9483 11.5976 43.4287 10.9485C43.546 10.79 43.9119 10.7437 44.1557 10.7611C46.6456 10.9363 48.8197 11.9938 50.9826 13.078C50.9443 13.1886 50.906 13.2992 50.8676 13.4098C49.5695 12.9379 48.275 12.4564 46.9719 11.9987C46.3417 11.7779 45.7069 11.5226 45.0535 11.4344C44.5774 11.37 43.8401 10.9154 43.6574 11.9292C43.6398 12.0273 43.1217 12.0955 42.8437 12.0736C42.2899 12.0297 41.7396 11.9284 41.1922 11.8234C39.62 11.5244 38.0938 11.2898 36.5069 11.9678C35.7695 12.2828 34.7905 11.9778 33.9791 12.1824C30.9926 12.9356 28.0288 13.7809 25.0608 14.6076C24.9174 14.6473 24.8169 14.8391 24.5212 15.135C24.9616 15.2232 25.2275 15.3532 25.4615 15.3108C26.9895 15.036 28.5072 14.7084 30.036 14.4382C30.3233 14.387 30.6415 14.5119 30.9457 14.5563L30.9365 14.5185Z" fill="white"/>
<path d="M30.9486 14.5567C31.8274 14.3524 32.7065 14.1472 33.5853 13.9429C33.6197 14.0347 33.655 14.1269 33.6894 14.2187C33.3972 14.4365 33.1054 14.6535 32.5265 15.0846C34.2611 15.3201 35.756 15.3794 37.1671 15.7559C38.5489 16.1242 39.8441 16.8155 41.2091 17.3787C40.6231 17.5584 40.0276 17.7406 39.3423 17.9508C39.2448 17.7935 39.162 17.5044 39.0321 17.4814C38.7108 17.4233 38.3665 17.4867 38.0321 17.501C38.2982 18.7741 36.7814 18.8719 36.4861 19.8028C36.4359 19.9604 35.9079 20.0569 35.6157 20.0279C34.8779 19.9548 34.149 19.7907 33.4152 19.6698C32.9016 19.5847 32.4881 19.7142 31.9707 19.8938C31.1318 20.1853 30.0472 19.7708 28.7712 19.6201C29.1745 19.2853 29.2573 19.1584 29.3351 19.1607C31.1078 19.2109 32.8858 19.2128 34.6514 19.3568C36.0087 19.4671 36.7017 19.187 37.3247 17.9626C37.7811 17.0651 37.3851 16.3062 36.3163 16.1297C35.6949 16.0274 35.0543 16.043 34.4251 15.9772C33.4996 15.8803 32.4648 16.0953 31.932 14.9364C31.821 14.6956 31.28 14.6529 30.9368 14.5176C30.9364 14.5185 30.9486 14.5567 30.9486 14.5567Z" fill="white"/>
<path d="M28.0119 19.8412C27.5805 19.8477 27.1344 19.93 26.7211 19.848C24.6127 19.4257 22.5145 18.9556 20.4103 18.5167C20.0731 18.4467 19.7216 18.4473 19.3766 18.4159C19.3449 18.5194 19.3136 18.6242 19.2819 18.7277C21.0827 19.6226 22.8835 20.5174 24.6969 21.4185C23.8336 23.0763 25.9489 22.4203 26.3671 23.2515C25.0854 23.2358 24.0237 23.0827 23.6663 21.6418C23.6065 21.4004 23.2043 21.1851 22.9161 21.0667C21.8189 20.619 20.6668 20.2881 19.611 19.7614C19.1722 19.5423 18.9236 18.9407 18.5886 18.5128C19.0409 18.2947 19.5067 17.8717 19.942 17.9013C20.9318 17.969 21.9062 18.2602 22.8865 18.4601C24.5962 18.8087 26.3062 19.1564 28.0162 19.5042C28.0154 19.6168 28.0136 19.729 28.0119 19.8412Z" fill="white"/>
<path d="M70.7626 25.6961C70.8034 26.4652 70.9916 27.04 70.807 27.2107C70.5138 27.4809 69.9662 27.5666 69.5359 27.5436C69.4053 27.5368 69.1128 26.7432 69.2314 26.6092C69.5281 26.2754 70.0185 26.1125 70.7626 25.6961Z" fill="#1B1B1B"/>
<path d="M47.2971 27.2007C47.8236 27.6864 47.5947 28.168 47.107 28.6351C46.1307 29.5688 45.0749 30.3427 43.6958 30.6002C42.7853 30.7701 41.9007 31.0804 40.9902 31.2482C40.0273 31.4252 39.57 30.8816 39.8341 29.9487C39.9044 29.7005 40.0322 29.4684 40.1176 29.2235C41.1296 26.34 41.128 26.3454 44.1425 26.7927C45.1589 26.9451 46.1813 27.058 47.2971 27.2007ZM45.7053 28.4384C45.6903 28.3159 45.6745 28.1929 45.6592 28.0712C44.543 27.9169 43.4291 27.7306 42.3086 27.6353C42.0701 27.6153 41.6761 27.8686 41.5741 28.0949C41.2936 28.7178 41.1307 29.393 40.8255 30.348C42.6124 29.6231 44.4454 29.7965 45.7053 28.4384Z" fill="#1B1B1B"/>
<path d="M49.1027 17.4593C49.9341 18.5902 50.8142 19.6923 51.5443 20.8849C51.6522 21.0609 51.0558 22.0165 50.7792 22.019C49.1984 22.0321 47.6093 21.9136 46.0391 21.7131C45.7832 21.6803 45.4391 21.0156 45.4341 20.6387C45.4254 19.9872 45.6313 19.3282 45.7827 18.6805C46.1603 17.0634 46.6786 16.794 48.2371 17.3777C48.4449 17.455 48.6462 17.5519 48.8499 17.6396C48.9346 17.578 49.0184 17.518 49.1027 17.4593ZM50.4181 21.2297C49.454 19.757 49.0253 18.1106 46.9504 18.2837C46.7894 18.9214 46.5781 19.5871 46.4771 20.2691C46.4486 20.4645 46.7191 20.8779 46.8906 20.9009C47.998 21.0498 49.1173 21.1185 50.4181 21.2297Z" fill="#1B1B1B"/>
<path d="M26.5511 36.0195C25.6241 36.0971 25.0752 36.1438 24.5258 36.1892C24.5099 35.7924 24.328 35.2321 24.5192 35.0377C24.7626 34.7905 25.3546 34.6906 25.7065 34.8042C25.9901 34.8964 26.1427 35.3985 26.5511 36.0195Z" fill="#1B1B1B"/>
<path d="M45.7053 28.4384C44.4446 29.7961 42.612 29.6239 40.8247 30.3476C41.1299 29.3926 41.2933 28.7166 41.5734 28.0945C41.6754 27.8682 42.0694 27.6149 42.3078 27.6349C43.4292 27.7306 44.5422 27.9165 45.6584 28.0708C45.6754 28.1933 45.6904 28.3159 45.7053 28.4384ZM41.8973 29.4731C42.8607 29.2154 43.682 28.995 44.7128 28.719C42.872 27.798 42.1891 27.9845 41.8973 29.4731Z" fill="white"/>
<path d="M50.418 21.2298C49.1172 21.1186 47.9988 21.0503 46.8909 20.9001C46.7186 20.8768 46.4481 20.4634 46.4775 20.2684C46.5785 19.5863 46.7897 18.9207 46.9508 18.283C49.0252 18.1107 49.4527 19.7575 50.418 21.2298ZM47.1324 20.3263C47.7862 20.4074 48.3293 20.4751 48.8728 20.5418C48.9548 20.4104 49.0367 20.2789 49.1187 20.1475C48.6576 19.6933 48.1964 19.239 47.5058 18.5588C47.3328 19.3752 47.2472 19.7796 47.1324 20.3263Z" fill="white"/>
<path d="M41.8973 29.473C42.1891 27.9845 42.8716 27.7988 44.7128 28.7189C43.6824 28.9941 42.8611 29.2145 41.8973 29.473Z" fill="#1B1B1B"/>
<path d="M47.1324 20.3262C47.2476 19.7809 47.3328 19.3751 47.5057 18.5587C48.1964 19.239 48.6575 19.6932 49.1187 20.1474C49.0367 20.2789 48.9548 20.4103 48.8728 20.5418C48.3289 20.4738 47.7854 20.407 47.1324 20.3262Z" fill="#1B1B1B"/>
</svg>
