<svg width="32" height="32" viewBox="0 0 32 32" fill="none" xmlns="http://www.w3.org/2000/svg">
<path d="M9.35201 31.7938C8.56594 31.7938 7.89582 31.5139 7.34165 30.9541C6.78749 30.3943 6.5104 29.7214 6.5104 28.9354C6.5104 28.1493 6.79029 27.4792 7.35005 26.925C7.90983 26.3709 8.58275 26.0938 9.3688 26.0938C10.1549 26.0938 10.825 26.3737 11.3792 26.9334C11.9333 27.4932 12.2104 28.1661 12.2104 28.9522C12.2104 29.7382 11.9305 30.4084 11.3708 30.9625C10.811 31.5167 10.1381 31.7938 9.35201 31.7938ZM25.1853 31.7938C24.3993 31.7938 23.7292 31.5139 23.175 30.9541C22.6208 30.3943 22.3437 29.7214 22.3437 28.9354C22.3437 28.1493 22.6236 27.4792 23.1834 26.925C23.7432 26.3709 24.4161 26.0938 25.2021 26.0938C25.9882 26.0938 26.6583 26.3737 27.2125 26.9334C27.7667 27.4932 28.0437 28.1661 28.0437 28.9522C28.0437 29.7382 27.7639 30.4084 27.2041 30.9625C26.6443 31.5167 25.9714 31.7938 25.1853 31.7938ZM7.30207 5.66877L11.6562 14.6938H23.0562L28.0042 5.66877H7.30207ZM6.11457 3.29377H29.4321C30.0381 3.29377 30.4992 3.57085 30.8153 4.12502C31.1315 4.67919 31.1312 5.23335 30.8146 5.78752L25.4708 15.4063C25.1805 15.9077 24.8037 16.3101 24.3404 16.6136C23.877 16.917 23.3698 17.0688 22.8187 17.0688H10.825L8.60832 21.1854H28.0437V23.5604H8.96457C7.85624 23.5604 7.05797 23.191 6.56978 22.4521C6.08158 21.7132 6.08818 20.882 6.58957 19.9584L9.1229 15.2875L3.10624 2.54169H0.0187378V0.166687H4.64999L6.11457 3.29377Z" fill="#1B1B1B"/>
</svg>
