<svg width="48" height="48" viewBox="0 0 48 48" fill="none" xmlns="http://www.w3.org/2000/svg">
<g clip-path="url(#clip0_21_187)">
<path fill-rule="evenodd" clip-rule="evenodd" d="M27.5 8.25C28.4665 8.25 29.25 9.03351 29.25 10C29.25 13.3818 31.655 16.2107 34.8486 16.8598C35.7957 17.0523 36.4075 17.9761 36.215 18.9233C36.0225 19.8704 35.0985 20.4822 34.1514 20.2897C32.2926 19.9118 30.6115 19.043 29.25 17.8243V32.75C29.25 37.5824 25.3324 41.5 20.5 41.5C15.6675 41.5 11.75 37.5824 11.75 32.75C11.75 27.9176 15.6675 24 20.5 24C21.4665 24 22.25 24.7835 22.25 25.75C22.25 26.7165 21.4665 27.5 20.5 27.5C17.6005 27.5 15.25 29.8504 15.25 32.75C15.25 35.6496 17.6005 38 20.5 38C23.3996 38 25.75 35.6496 25.75 32.75V10C25.75 9.03351 26.5335 8.25 27.5 8.25Z" fill="white"/>
</g>
<circle cx="24" cy="24" r="23" stroke="white" stroke-opacity="0.9" stroke-width="2"/>
<defs>
<clipPath id="clip0_21_187">
<rect width="42" height="42" fill="white" transform="translate(3 3)"/>
</clipPath>
</defs>
</svg>
