<svg width="48" height="48" viewBox="0 0 48 48" fill="none" xmlns="http://www.w3.org/2000/svg">
<g clip-path="url(#clip0_21_169)">
<path d="M24 -0.0524902C10.737 -0.0524902 -0.0509949 10.7385 -0.0509949 24C-0.0509949 37.2615 10.737 48.0525 24 48.0525C37.263 48.0525 48.051 37.2615 48.051 24C48.051 10.7385 37.263 -0.0524902 24 -0.0524902ZM24 46.4475C11.622 46.4475 1.55101 36.378 1.55101 24C1.55101 11.622 11.622 1.55251 24 1.55251C36.378 1.55251 46.449 11.622 46.449 24C46.449 36.378 36.378 46.4475 24 46.4475Z" fill="white"/>
<path d="M29.2875 23.424C28.488 23.007 27.63 22.533 26.7705 22.0605C24.9795 21.0735 23.286 20.1405 22.026 19.6395C21.7965 19.5465 21.5355 19.5765 21.3285 19.7145C21.123 19.8555 21 20.088 21 20.337V27.8175C21 28.074 21.132 28.314 21.348 28.4505C21.471 28.5285 21.6105 28.5675 21.75 28.5675C21.8595 28.5675 21.969 28.5435 22.0725 28.4955C23.5815 27.7785 25.2375 26.898 26.841 26.046C27.6585 25.6095 28.4805 25.173 29.2875 24.756C29.535 24.627 29.6925 24.372 29.6925 24.0915C29.6925 23.811 29.535 23.5545 29.2875 23.424ZM26.136 24.72C24.9225 25.365 23.679 26.0265 22.5 26.616V21.4905C23.5485 21.996 24.8145 22.6935 26.0475 23.373C26.4795 23.6115 26.9115 23.8485 27.3375 24.081C26.9385 24.294 26.535 24.507 26.136 24.72Z" fill="white"/>
<path d="M33.456 15.9391C32.238 15.4996 25.956 15.4651 24.06 15.4651C20.304 15.4651 17.055 15.5731 15.3675 15.7546C14.409 15.8551 13.5705 16.3021 12.942 17.0431C11.178 19.1176 11.5545 28.3861 12.324 30.4981C12.7215 31.5856 13.4775 32.3191 14.571 32.6791C16.047 33.1651 22.563 33.1891 23.8545 33.1891C26.493 33.1891 32.7555 33.1216 33.93 32.5051C34.659 32.1256 35.193 31.5841 35.517 30.8926C36.609 28.5511 36.537 20.3596 35.6475 18.0526C35.2545 17.0326 34.5165 16.3216 33.456 15.9391ZM34.1565 30.2581C33.975 30.6481 33.6735 30.9466 33.2385 31.1731C32.709 31.4236 29.2425 31.6891 23.8545 31.6891C18.936 31.6891 15.6975 31.4701 15.039 31.2526C14.385 31.0381 13.9695 30.6346 13.7325 29.9836C12.9795 27.9166 12.906 19.3981 14.085 18.0136C14.4645 17.5651 14.949 17.3056 15.5265 17.2456C17.139 17.0716 20.409 16.9636 24.0585 16.9636C29.1375 16.9636 32.427 17.1616 32.9445 17.3491C33.597 17.5846 34.0095 17.9791 34.245 18.5926C34.9965 20.5381 35.067 28.3081 34.1565 30.2581Z" fill="white"/>
</g>
<defs>
<clipPath id="clip0_21_169">
<rect width="48" height="48" fill="white"/>
</clipPath>
</defs>
</svg>
